<svg xmlns="http://www.w3.org/2000/svg" viewBox="0 0 100 100"><defs><style>.cls-1{fill:#f2f2f2;}</style></defs><g id="Layer_2" data-name="Layer 2"><g id="Layer_1-2" data-name="Layer 1"><rect width="100" height="100" rx="26.59"/><path class="cls-1" d="M65.59,68.79h-.14c-3.53,5.91-8.36,8-14.48,8C43.2,76.79,37.15,74,32.9,69.3s-6.7-11.38-6.7-19.16c0-8.56,3-16,8.43-21,4.17-3.82,9.65-5.91,16.56-5.91,13,0,20.38,7.13,22,17.21H63c-1.16-5-5-8.57-11.6-8.57-9.72,0-14.54,8.07-14.54,18.29,0,10.52,5.54,18.22,14.4,18.22,8,0,13.25-6,13.25-11.66v-.29H52.12V48.34H73.8V75.71H66Z"/></g></g></svg>